
<svg version="1.1" class="caution-icon" xmlns="http://www.w3.org/2000/svg" xmlns:xlink="http://www.w3.org/1999/xlink" x="0px"
	 y="0px" viewBox="0 0 78 68" style="enable-background:new 0 0 76.8 67.7; fill: #fff;" xml:space="preserve">

	<path  d="M74.4,57.7l-31-53.6c-1-1.9-2.9-3-5.1-3c-2.2,0-4.1,1.1-5,2.9l-31,53.7c-1.1,1.9-1.1,4.1,0,5.9
		c1.1,1.8,2.9,2.9,5,2.9h62c2.1,0,4-1.1,5-2.9C75.5,61.8,75.5,59.6,74.4,57.7z M8.4,60.1l30-52l30,52H8.4z"/>
	<path  d="M38.5,50.6h-0.2c-1.4,0-2.5,1.1-2.5,2.5c0,0.7,0.3,1.3,0.7,1.7s1.1,0.7,1.7,0.7h0.2c1.4,0,2.5-1.1,2.5-2.5
		c0-0.7-0.3-1.3-0.7-1.7S39.1,50.6,38.5,50.6z"/>
	<path  d="M35.8,22.5V40c0,1.5,1.1,2.6,2.6,2.6S41,41.4,41,40V22.5c0-0.7-0.3-1.4-0.7-1.8s-1.1-0.7-1.8-0.7
		C36.9,19.9,35.8,21.1,35.8,22.5z"/>

</svg>
