<?xml version="1.0" encoding="UTF-8"?>
<svg id="Layer_1" data-name="Layer 1" xmlns="http://www.w3.org/2000/svg" viewBox="0 0 86.55 86.55">
  <defs>
    <style>
      .cls-1 {
        fill: #ffce00;
      }

      .cls-2 {
        fill: #562912;
      }
    </style>
  </defs>
  <path class="cls-1" d="M86.55,43.28c0,23.9-19.37,43.28-43.28,43.28S0,67.18,0,43.28,19.37,0,43.28,0s43.28,19.38,43.28,43.28Z"/>
  <g>
    <path class="cls-2" d="M66.42,38.5c0,3.81-2.04,6.9-4.57,6.9s-4.57-3.09-4.57-6.9,2.05-6.9,4.57-6.9,4.57,3.09,4.57,6.9Z"/>
    <path class="cls-2" d="M30.27,38.5c0,3.81-2.04,6.9-4.57,6.9s-4.57-3.09-4.57-6.9,2.05-6.9,4.57-6.9,4.57,3.09,4.57,6.9Z"/>
  </g>
</svg>