<?xml version="1.0" encoding="UTF-8"?>
<svg id="Layer_1" data-name="Layer 1" xmlns="http://www.w3.org/2000/svg" viewBox="0 0 86.56 86.56">
  <defs>
    <style>
      .cls-1 {
        fill: #d24103;
      }

      .cls-2 {
        fill: #562912;
      }
    </style>
  </defs>
  <path class="cls-1" d="M86.56,43.28c0,23.9-19.37,43.28-43.28,43.28S0,67.18,0,43.28,19.37,0,43.28,0s43.28,19.38,43.28,43.28Z"/>
  <g>
    <path class="cls-2" d="M31.11,45.69c0,3.48-1.99,6.31-4.44,6.31s-4.44-2.83-4.44-6.31,1.99-6.31,4.44-6.31,4.44,2.82,4.44,6.31Z"/>
    <path class="cls-2" d="M64.33,45.69c0,3.48-1.99,6.31-4.44,6.31s-4.44-2.83-4.44-6.31,1.99-6.31,4.44-6.31,4.44,2.82,4.44,6.31Z"/>
  </g>
  <g>
    <path class="cls-2" d="M33.73,41.54c-.53,0-1.01-.34-1.17-.88-1.31-4.44-5.75-7.82-11.05-8.42-.67-.07-1.15-.68-1.07-1.35,.08-.67,.67-1.16,1.35-1.07,6.26,.71,11.53,4.79,13.12,10.16,.19,.65-.18,1.32-.83,1.52-.12,.03-.23,.05-.35,.05Z"/>
    <path class="cls-2" d="M52.83,41.54c-.11,0-.23-.01-.35-.05-.65-.19-1.02-.87-.82-1.52,1.58-5.37,6.85-9.45,13.11-10.16,.68-.08,1.27,.4,1.35,1.07,.08,.67-.4,1.27-1.07,1.35-5.3,.6-9.74,3.99-11.05,8.42-.16,.53-.64,.88-1.17,.88Z"/>
  </g>
  <path class="cls-2" d="M51.99,66.1c-.48,0-.96-.17-1.34-.53-1.81-1.69-4.29-2.68-6.97-2.78-2.97-.13-5.8,.89-7.76,2.76-.79,.75-2.03,.72-2.78-.06-.75-.79-.72-2.03,.07-2.78,2.72-2.6,6.6-4,10.63-3.85,3.62,.14,7,1.5,9.5,3.83,.79,.74,.84,1.99,.1,2.78-.39,.42-.91,.63-1.44,.63Z"/>
</svg>