<?xml version="1.0" encoding="UTF-8"?>
<svg id="Layer_1" data-name="Layer 1" xmlns="http://www.w3.org/2000/svg" viewBox="0 0 86.56 86.56">
  <defs>
    <style>
      .cls-1 {
        fill: #e55725;
      }

      .cls-2 {
        opacity: .4;
      }

      .cls-3 {
        fill: #ffce00;
      }

      .cls-4 {
        fill: #562912;
      }
    </style>
  </defs>
  <path class="cls-3" d="M86.56,43.28c0,23.9-19.37,43.28-43.28,43.28S0,67.18,0,43.28,19.37,0,43.28,0s43.28,19.38,43.28,43.28Z"/>
  <path class="cls-4" d="M28.13,52.6c-1.32-.21-2.22,1.33-1.35,2.34,3.84,4.44,9.79,7.3,16.49,7.3s12.65-2.86,16.49-7.3c.87-1.01-.03-2.55-1.34-2.34-4.55,.73-9.69,1.14-15.14,1.14s-10.6-.41-15.15-1.14Z"/>
  <g>
    <path class="cls-4" d="M59.21,36.73c-.3-.17-.66,.11-.59,.44,.51,2.6,3.08,4.57,6.18,4.57s5.66-1.98,6.18-4.57c.07-.33-.29-.61-.59-.44-1.59,.9-3.52,1.42-5.59,1.42s-3.99-.53-5.59-1.42Z"/>
    <path class="cls-4" d="M16.17,36.73c-.3-.17-.66,.11-.59,.44,.52,2.6,3.08,4.57,6.18,4.57s5.66-1.98,6.18-4.57c.06-.33-.29-.61-.59-.44-1.59,.9-3.51,1.42-5.58,1.42s-3.99-.53-5.59-1.42Z"/>
  </g>
  <g>
    <g class="cls-2">
      <path class="cls-1" d="M77.3,51.9c0,3.68-2.99,6.67-6.67,6.67s-6.67-2.99-6.67-6.67,2.99-6.67,6.67-6.67,6.67,2.99,6.67,6.67Z"/>
    </g>
    <g class="cls-2">
      <path class="cls-1" d="M22.61,51.9c0,3.68-2.99,6.67-6.67,6.67s-6.67-2.99-6.67-6.67,2.99-6.67,6.67-6.67,6.67,2.99,6.67,6.67Z"/>
    </g>
  </g>
</svg>