<?xml version="1.0" encoding="UTF-8"?>
<svg id="Layer_1" data-name="Layer 1" xmlns="http://www.w3.org/2000/svg" viewBox="0 0 86.56 86.56">
  <defs>
    <style>
      .cls-1 {
        fill: #ffce00;
      }

      .cls-2 {
        fill: #562912;
      }

      .cls-3 {
        fill: #cc342f;
      }
    </style>
  </defs>
  <path class="cls-1" d="M86.56,43.28c0,23.9-19.38,43.28-43.28,43.28S0,67.18,0,43.28,19.37,0,43.28,0s43.28,19.38,43.28,43.28Z"/>
  <g>
    <path class="cls-3" d="M69.75,18.46c-7.06-13.46-20.12-3.92-17.83,6.14,1.81,7.9,10.48,19.12,10.48,19.12,1.25-.44,13.33-4.8,19.1-10.5,7.33-7.25,1.44-22.32-11.75-14.76Z"/>
    <path class="cls-3" d="M16.8,18.46c7.06-13.46,20.12-3.92,17.83,6.14-1.8,7.9-10.48,19.12-10.48,19.12-1.25-.44-13.33-4.8-19.1-10.5-7.33-7.25-1.44-22.32,11.74-14.76Z"/>
  </g>
  <path class="cls-2" d="M27.48,51.97c-1.08-.36-2.1,.81-1.79,2.07,1.86,7.39,9.02,12.9,17.59,12.9s15.73-5.51,17.59-12.9c.32-1.25-.7-2.43-1.79-2.07-4.75,1.58-10.12,2.46-15.8,2.46s-11.05-.89-15.8-2.46Z"/>
  <path class="cls-3" d="M43.28,59.43c-3.77,0-7.01,2.29-8.43,5.57,2.52,1.23,5.39,1.94,8.43,1.94s5.92-.71,8.43-1.94c-1.43-3.28-4.66-5.57-8.43-5.57Z"/>
</svg>