<?xml version="1.0" encoding="UTF-8"?>
<svg id="Layer_1" data-name="Layer 1" xmlns="http://www.w3.org/2000/svg" viewBox="0 0 74.13 71.07">
  <defs>
    <style>
      .cls-1 {
        fill: #fbb03b;
      }
    </style>
  </defs>
  <path class="cls-1" d="M42.3,3.26l6.93,14.03c.85,1.72,2.5,2.92,4.4,3.2l15.49,2.25c4.79,.7,6.71,6.59,3.24,9.97l-11.21,10.92c-1.38,1.34-2.01,3.28-1.68,5.17l2.65,15.42c.82,4.77-4.19,8.41-8.48,6.16l-13.85-7.28c-1.7-.9-3.74-.9-5.44,0l-13.85,7.28c-4.29,2.25-9.3-1.39-8.48-6.16l2.65-15.42c.33-1.9-.3-3.83-1.68-5.17L1.77,32.71c-3.47-3.38-1.55-9.27,3.24-9.97l15.49-2.25c1.9-.28,3.55-1.47,4.4-3.2L31.82,3.26c2.14-4.34,8.34-4.34,10.48,0Z"/>
</svg>