<?xml version="1.0" encoding="utf-8"?>
<svg viewBox="0 0 500 500" xmlns="http://www.w3.org/2000/svg">
  <g transform="matrix(0.494425, 0, 0, 0.495351, 2.333423, 1.870425)" style="fill:#888;">
    <g transform="matrix(2.022551, 0, 0, 2.01877, 52.176397, -480.073648)">
      <g transform="matrix(1, 0, 0, 1, 350.001503, 354.891591)">
        <g>
          <g transform="matrix(1.617068, 0, 0, 1.614042, -371.143433, -111.464043)" style="">
            <g>
              <path d="M149.996,0C67.157,0,0.001,67.158,0.001,149.997c0,82.837,67.156,150,149.995,150s150-67.163,150-150    C299.996,67.158,232.835,0,149.996,0z M149.999,52.686l88.763,55.35H61.236L149.999,52.686z M239.868,196.423h-0.009    c0,8.878-7.195,16.072-16.072,16.072H76.211c-8.878,0-16.072-7.195-16.072-16.072v-84.865c0-0.939,0.096-1.852,0.252-2.749    l84.808,52.883c0.104,0.065,0.215,0.109,0.322,0.169c0.112,0.062,0.226,0.122,0.34,0.179c0.599,0.309,1.216,0.558,1.847,0.721    c0.065,0.018,0.13,0.026,0.195,0.041c0.692,0.163,1.393,0.265,2.093,0.265h0.005c0.005,0,0.01,0,0.01,0    c0.7,0,1.401-0.099,2.093-0.265c0.065-0.016,0.13-0.023,0.195-0.041c0.63-0.163,1.245-0.412,1.847-0.721    c0.114-0.057,0.228-0.117,0.34-0.179c0.106-0.06,0.218-0.104,0.322-0.169l84.808-52.883c0.156,0.897,0.252,1.808,0.252,2.749    V196.423z" style=""/>
            </g>
          </g>
          <g transform="matrix(1.617068, 0, 0, 1.614042, -371.143433, -111.464043)" style=""/>
          <g transform="matrix(1.617068, 0, 0, 1.614042, -371.143433, -111.464043)" style=""/>
          <g transform="matrix(1.617068, 0, 0, 1.614042, -371.143433, -111.464043)" style=""/>
          <g transform="matrix(1.617068, 0, 0, 1.614042, -371.143433, -111.464043)" style=""/>
          <g transform="matrix(1.617068, 0, 0, 1.614042, -371.143433, -111.464043)" style=""/>
          <g transform="matrix(1.617068, 0, 0, 1.614042, -371.143433, -111.464043)" style=""/>
          <g transform="matrix(1.617068, 0, 0, 1.614042, -371.143433, -111.464043)" style=""/>
          <g transform="matrix(1.617068, 0, 0, 1.614042, -371.143433, -111.464043)" style=""/>
          <g transform="matrix(1.617068, 0, 0, 1.614042, -371.143433, -111.464043)" style=""/>
          <g transform="matrix(1.617068, 0, 0, 1.614042, -371.143433, -111.464043)" style=""/>
          <g transform="matrix(1.617068, 0, 0, 1.614042, -371.143433, -111.464043)" style=""/>
          <g transform="matrix(1.617068, 0, 0, 1.614042, -371.143433, -111.464043)" style=""/>
          <g transform="matrix(1.617068, 0, 0, 1.614042, -371.143433, -111.464043)" style=""/>
          <g transform="matrix(1.617068, 0, 0, 1.614042, -371.143433, -111.464043)" style=""/>
          <g transform="matrix(1.617068, 0, 0, 1.614042, -371.143433, -111.464043)" style=""/>
        </g>
      </g>
      <g transform="matrix(1, 0, 0, 1, 350.001503, 354.891591)"/>
      <g transform="matrix(1, 0, 0, 1, 350.001503, 354.891591)"/>
      <g transform="matrix(1, 0, 0, 1, 350.001503, 354.891591)"/>
      <g transform="matrix(1, 0, 0, 1, 350.001503, 354.891591)"/>
      <g transform="matrix(1, 0, 0, 1, 350.001503, 354.891591)"/>
      <g transform="matrix(1, 0, 0, 1, 350.001503, 354.891591)"/>
      <g transform="matrix(1, 0, 0, 1, 350.001503, 354.891591)"/>
      <g transform="matrix(1, 0, 0, 1, 350.001503, 354.891591)"/>
      <g transform="matrix(1, 0, 0, 1, 350.001503, 354.891591)"/>
      <g transform="matrix(1, 0, 0, 1, 350.001503, 354.891591)"/>
      <g transform="matrix(1, 0, 0, 1, 350.001503, 354.891591)"/>
      <g transform="matrix(1, 0, 0, 1, 350.001503, 354.891591)"/>
      <g transform="matrix(1, 0, 0, 1, 350.001503, 354.891591)"/>
      <g transform="matrix(1, 0, 0, 1, 350.001503, 354.891591)"/>
      <g transform="matrix(1, 0, 0, 1, 350.001503, 354.891591)"/>
    </g>
  </g>
</svg>