<?xml version="1.0" encoding="utf-8"?>
<svg viewBox="0 0 500 500" xmlns="http://www.w3.org/2000/svg">
  <g transform="matrix(0.494425, 0, 0, 0.495351, 2.333423, 1.870425)" style="fill:#888;">
    <g transform="matrix(2.022551, 0, 0, 2.01877, 52.176397, -480.073648)">
      <g transform="matrix(1, 0, 0, 1, 350.001503, 354.891591)">
        <g>
          <path fill-rule="evenodd" clip-rule="evenodd" d="M -128.586 -112.529 C -262.562 -112.529 -371.077 -1.236 -371.077 136.17 C -371.077 246.22 -301.664 339.171 -205.274 372.124 C -193.15 374.3 -188.603 366.839 -188.603 360.31 C -188.603 354.404 -188.906 334.819 -188.906 313.99 C -249.831 325.493 -265.593 298.757 -270.443 284.768 C -273.171 277.618 -284.993 255.546 -295.298 249.639 C -303.785 244.976 -315.91 233.474 -295.601 233.162 C -276.505 232.852 -262.865 251.193 -258.319 258.655 C -236.494 296.27 -201.636 285.701 -187.693 279.172 C -185.571 263.006 -179.206 252.126 -172.234 245.909 C -226.188 239.691 -282.568 218.242 -282.568 123.114 C -282.568 96.067 -273.171 73.685 -257.712 56.276 C -260.138 50.058 -268.624 24.567 -255.287 -9.63 C -255.287 -9.63 -234.979 -16.158 -188.603 15.863 C -169.203 10.267 -148.592 7.468 -127.98 7.468 C -107.368 7.468 -86.757 10.267 -67.358 15.863 C -20.981 -16.469 -0.673 -9.63 -0.673 -9.63 C 12.664 24.567 4.177 50.058 1.752 56.276 C 17.211 73.685 26.607 95.757 26.607 123.114 C 26.607 218.552 -30.075 239.691 -84.029 245.909 C -75.238 253.68 -67.661 268.602 -67.661 291.918 C -67.661 325.181 -67.964 351.917 -67.964 360.31 C -67.964 366.839 -63.417 374.611 -51.292 372.124 C 44.491 339.171 113.904 245.909 113.904 136.17 C 113.904 -1.236 5.39 -112.529 -128.586 -112.529 Z" style=""/>
        </g>
      </g>
      <g transform="matrix(1, 0, 0, 1, 350.001503, 354.891591)"/>
      <g transform="matrix(1, 0, 0, 1, 350.001503, 354.891591)"/>
      <g transform="matrix(1, 0, 0, 1, 350.001503, 354.891591)"/>
      <g transform="matrix(1, 0, 0, 1, 350.001503, 354.891591)"/>
      <g transform="matrix(1, 0, 0, 1, 350.001503, 354.891591)"/>
      <g transform="matrix(1, 0, 0, 1, 350.001503, 354.891591)"/>
      <g transform="matrix(1, 0, 0, 1, 350.001503, 354.891591)"/>
      <g transform="matrix(1, 0, 0, 1, 350.001503, 354.891591)"/>
      <g transform="matrix(1, 0, 0, 1, 350.001503, 354.891591)"/>
      <g transform="matrix(1, 0, 0, 1, 350.001503, 354.891591)"/>
      <g transform="matrix(1, 0, 0, 1, 350.001503, 354.891591)"/>
      <g transform="matrix(1, 0, 0, 1, 350.001503, 354.891591)"/>
      <g transform="matrix(1, 0, 0, 1, 350.001503, 354.891591)"/>
      <g transform="matrix(1, 0, 0, 1, 350.001503, 354.891591)"/>
      <g transform="matrix(1, 0, 0, 1, 350.001503, 354.891591)"/>
    </g>
  </g>
</svg>