<?xml version="1.0" encoding="utf-8"?>
<svg viewBox="0 0 500 500" xmlns="http://www.w3.org/2000/svg">
  <g transform="matrix(0.494425, 0, 0, 0.495351, 2.333423, 1.870425)" style="fill:#888;">
    <g transform="matrix(2.022551, 0, 0, 2.01877, 52.176397, -480.073648)">
      <g transform="matrix(1, 0, 0, 1, 350.001503, 354.891591)">
        <g>
          <path d="M 43.024 -41.437 C -2.629 -86.747 -63.334 -111.718 -128.01 -111.74 C -261.284 -111.74 -369.747 -4.196 -369.795 128.011 C -369.82 170.27 -358.686 211.526 -337.529 247.878 L -371.829 372.113 L -243.662 338.785 C -208.348 357.896 -168.603 367.959 -128.132 367.983 L -128.036 367.983 C 5.215 367.983 113.677 260.412 113.749 128.229 C 113.799 64.14 88.674 3.898 43.024 -41.437 Z M -9.72 213.709 C -14.755 227.708 -39.42 241.2 -50.504 242.187 C -61.591 243.195 -71.975 247.159 -123.001 227.203 C -184.41 203.191 -223.184 140.738 -226.186 136.754 C -229.212 132.744 -250.85 104.266 -250.85 74.78 C -250.85 45.292 -235.238 30.79 -229.697 24.811 C -224.155 18.808 -217.618 17.32 -213.575 17.32 C -209.557 17.32 -205.516 17.32 -202.006 17.464 C -197.696 17.631 -192.928 17.849 -188.402 27.812 C -183.029 39.676 -171.288 69.306 -169.789 72.308 C -168.287 75.307 -167.27 78.814 -169.28 82.8 C -171.288 86.784 -172.305 89.281 -175.306 92.789 C -178.333 96.294 -181.65 100.592 -184.359 103.282 C -187.385 106.257 -190.533 109.526 -187.023 115.505 C -183.489 121.505 -171.386 141.123 -153.427 156.996 C -130.335 177.403 -110.896 183.72 -104.848 186.743 C -98.795 189.747 -95.284 189.242 -91.751 185.234 C -88.219 181.246 -76.646 167.752 -72.628 161.749 C -68.61 155.744 -64.57 156.754 -59.025 158.747 C -53.483 160.742 -23.783 175.242 -17.756 178.244 C -11.704 181.246 -7.686 182.735 -6.187 185.234 C -4.685 187.706 -4.685 199.71 -9.72 213.709 Z" style=""/>
        </g>
      </g>
      <g transform="matrix(1, 0, 0, 1, 350.001503, 354.891591)"/>
      <g transform="matrix(1, 0, 0, 1, 350.001503, 354.891591)"/>
      <g transform="matrix(1, 0, 0, 1, 350.001503, 354.891591)"/>
      <g transform="matrix(1, 0, 0, 1, 350.001503, 354.891591)"/>
      <g transform="matrix(1, 0, 0, 1, 350.001503, 354.891591)"/>
      <g transform="matrix(1, 0, 0, 1, 350.001503, 354.891591)"/>
      <g transform="matrix(1, 0, 0, 1, 350.001503, 354.891591)"/>
      <g transform="matrix(1, 0, 0, 1, 350.001503, 354.891591)"/>
      <g transform="matrix(1, 0, 0, 1, 350.001503, 354.891591)"/>
      <g transform="matrix(1, 0, 0, 1, 350.001503, 354.891591)"/>
      <g transform="matrix(1, 0, 0, 1, 350.001503, 354.891591)"/>
      <g transform="matrix(1, 0, 0, 1, 350.001503, 354.891591)"/>
      <g transform="matrix(1, 0, 0, 1, 350.001503, 354.891591)"/>
      <g transform="matrix(1, 0, 0, 1, 350.001503, 354.891591)"/>
      <g transform="matrix(1, 0, 0, 1, 350.001503, 354.891591)"/>
    </g>
  </g>
</svg>